<svg xmlns="http://www.w3.org/2000/svg" viewBox="0 0 100 100" fill="none">
  <defs>
    <linearGradient id="grad1" x1="0%" y1="0%" x2="100%" y2="100%">
      <stop offset="0%" style="stop-color:#6366f1;stop-opacity:1" />
      <stop offset="100%" style="stop-color:#a855f7;stop-opacity:1" />
    </linearGradient>
  </defs>
  <circle cx="50" cy="50" r="45" fill="url(#grad1)" opacity="0.1"/>
  <circle cx="50" cy="50" r="40" fill="url(#grad1)" opacity="0.2"/>
  <path d="M50 25c-13.8 0-25 11.2-25 25s11.2 25 25 25 25-11.2 25-25-11.2-25-25-25zm0 45c-11 0-20-9-20-20s9-20 20-20 20 9 20 20-9 20-20 20z" fill="url(#grad1)"/>
  <path d="M50 35c-8.3 0-15 6.7-15 15s6.7 15 15 15 15-6.7 15-15-6.7-15-15-15zm0 25c-5.5 0-10-4.5-10-10s4.5-10 10-10 10 4.5 10 10-4.5 10-10 10z" fill="url(#grad1)"/>
  <path d="M35 40c-2 3-2 17 0 20l5-2c-1-2-1-14 0-16l-5-2zM65 40c2 3 2 17 0 20l-5-2c1-2 1-14 0-16l5-2z" fill="url(#grad1)"/>
  <circle cx="50" cy="50" r="5" fill="url(#grad1)"/>
  <path d="M28 35c-5 8-5 22 0 30M72 35c5 8 5 22 0 30" stroke="url(#grad1)" stroke-width="3" stroke-linecap="round"/>
</svg>